<svg xmlns="http://www.w3.org/2000/svg" width="512" height="512" viewBox="0 0 512 512"><path fill="white" d="M310.867 16.785L258.89 101.47l-51.976-58.402l2.188 102.407l19.962-46.123L251.2 171.03l23.19-28.46l3.16 60.08l80.108-64.298l-48.486 91.705l47.433 21.08l-38.93 15.894l69.548 110.654l-80.776-52.3l5.45 36.505l-44.467-49.445l-30.987 73.61l-12.482-85.963l-41.273 26.937l1.053-46.378l-83.27 6.323l82.218-40.055l-88.542-29.512l43.772-19.898l-117.313 11.42l89.94 43.8l-79.426 55.48l95.778 4.675l-34.46 57.232l57.82-26.863L131 453.262l77.66-93.657l18.69 129.067l33.287-100.45l93.285 84.055l-23.957-83.273l136.207 68.642l-78.377-138.935l81.11 9.827l-75.325-68.94l80.225-31.98l-94.026-21.025l43.8-50.225l-61.32 16.936l43.803-112.13l-98.7 85.85l3.504-130.238zM18.854 18.537v42.535c38.127 46.536 115.7 118.404 184.445 166.92c-2.49 15.173 4.22 33.952 18.917 48.65c21.02 21.02 50.402 25.723 65.623 10.503c15.222-15.223 10.518-44.604-10.504-65.625c-13.795-13.795-31.19-20.562-45.82-19.284c-49.03-67.528-121.705-143.93-172.71-183.7h-39.95z"/></svg>
